<?xml version="1.0" encoding="UTF-8"?>
<svg height="128px" viewBox="0 0 128 128" width="128px" xmlns="http://www.w3.org/2000/svg" xmlns:xlink="http://www.w3.org/1999/xlink">
    <filter id="a" height="100%" width="100%" x="0%" y="0%">
        <feColorMatrix color-interpolation-filters="sRGB" values="0 0 0 0 1 0 0 0 0 1 0 0 0 0 1 0 0 0 1 0"/>
    </filter>
    <linearGradient id="b" gradientUnits="userSpaceOnUse" x1="4.157227" x2="123.999924" y1="113.607422" y2="113.607422">
        <stop offset="0" stop-color="#3d3846"/>
        <stop offset="0.431979" stop-color="#766b87"/>
        <stop offset="1" stop-color="#3d3846"/>
    </linearGradient>
    <linearGradient id="c" gradientTransform="matrix(0.913268 -0.40736 0.40736 0.913268 -8 -164)" gradientUnits="userSpaceOnUse" x1="-31.097309" x2="-13.45399" y1="213.991806" y2="215.936523">
        <stop offset="0" stop-color="#e01b24"/>
        <stop offset="1" stop-color="#241f31" stop-opacity="0.313726"/>
    </linearGradient>
    <mask id="d">
        <g filter="url(#a)">
            <rect fill-opacity="0.292897" height="153.6" width="153.6" x="-12.8" y="-12.8"/>
        </g>
    </mask>
    <clipPath id="e">
        <rect height="152" width="192"/>
    </clipPath>
    <path d="m 124 66 c 0 33.136719 -26.863281 60 -60 60 s -60 -26.863281 -60 -60 s 26.863281 -60 60 -60 s 60 26.863281 60 60 z m 0 0" fill="url(#b)"/>
    <path d="m 64 7 c 30.929688 0 56 25.070312 56 56 v 2 c 0 30.929688 -25.070312 56 -56 56 s -56 -25.070312 -56 -56 v -2 c 0 -30.929688 25.070312 -56 56 -56 z m 0 0" fill="#d5d3cf"/>
    <path d="m 124 63 c 0 33.136719 -26.863281 60 -60 60 s -60 -26.863281 -60 -60 s 26.863281 -60 60 -60 s 60 26.863281 60 60 z m 0 0" fill="#77767b"/>
    <path d="m 118 63 c 0 29.824219 -24.175781 54 -54 54 s -54 -24.175781 -54 -54 s 24.175781 -54 54 -54 s 54 24.175781 54 54 z m 0 0" fill="#deddda"/>
    <path d="m 37.828125 36.136719 c -0.171875 0.03125 -0.332031 0.109375 -0.46875 0.222656 c -0.199219 0.175781 -0.324219 0.421875 -0.34375 0.6875 s 0.066406 0.527344 0.242187 0.726563 l 21.710938 25.125 c -1.078125 1.699218 -1.238281 3.824218 -0.421875 5.660156 c 1.351563 3.027344 4.898437 4.386718 7.925781 3.035156 c 1.195313 -0.53125 2.1875 -1.445312 2.816406 -2.59375 l 22.261719 0.117188 c 1.105469 0.007812 2.007813 -0.882813 2.011719 -1.992188 c 0.007812 -1.105469 -0.882812 -2.007812 -1.988281 -2.015625 l -21.652344 -0.113281 c -0.085937 -0.457032 -0.226563 -0.898438 -0.414063 -1.324219 c -1.347656 -3.027344 -4.898437 -4.386719 -7.925781 -3.039063 c -0.445312 0.207032 -0.867187 0.46875 -1.253906 0.777344 l -21.554687 -24.945312 c -0.234376 -0.269532 -0.59375 -0.394532 -0.945313 -0.328125 z m 0 0" fill-opacity="0.192157" fill-rule="evenodd"/>
    <path d="m 64.65625 64.855469 l 26.90625 0.144531" fill="#3d3846" fill-rule="evenodd" stroke="#3d3846" stroke-linecap="round" stroke-width="4.00626"/>
    <path d="m 37.238281 33.882812 c 7.261719 -6.460937 16.617188 -10.078124 26.335938 -10.191406 l 0.453125 40.308594 z m 0 0" fill="url(#c)"/>
    <path d="m 63 63.914062 l -24.984375 -28.910156" fill="none" stroke="#ffffff" stroke-linecap="round" stroke-width="2.00313"/>
    <path d="m 69.507812 61.554688 c 1.351563 3.027343 -0.007812 6.574218 -3.035156 7.925781 c -3.027344 1.347656 -6.574218 -0.011719 -7.921875 -3.035157 c -1.351562 -3.027343 0.007813 -6.574218 3.035157 -7.925781 c 3.023437 -1.347656 6.574218 0.011719 7.921874 3.035157 z m 0 0" fill="#241f31"/>
    <path d="m 66.027344 64 c 0 1.105469 -0.894532 2 -2 2 c -1.101563 0 -2 -0.894531 -2 -2 s 0.898437 -2 2 -2 c 1.105468 0 2 0.894531 2 2 z m 0 0" fill="#deddda"/>
    <g mask="url(#d)">
        <g clip-path="url(#e)" transform="matrix(1 0 0 1 -8 -16)">
            <path d="m 72 25 c -29.824219 0 -54 24.175781 -54 54 c 0.007812 0.390625 0.023438 0.78125 0.042969 1.171875 c 0.453125 -29.484375 24.46875 -53.152344 53.957031 -53.171875 c 29.355469 0.015625 53.320312 23.480469 53.957031 52.828125 c 0.015625 -0.277344 0.03125 -0.550781 0.042969 -0.828125 c 0 -29.824219 -24.175781 -54 -54 -54 z m 0 0"/>
        </g>
    </g>
</svg>
